<svg xmlns="http://www.w3.org/2000/svg" width="24" height="24" viewBox="0 0 24 24">
    <g fill="none" fill-rule="evenodd">
        <g fill="#3E6DDC">
            <g>
                <g>
                    <g>
                        <g>
                            <g>
                                <path d="M14 2c1.766.772 3 2.534 3 4.584s-1.234 3.812-3 4.584v9.416c0 .552-.448 1-1 1h-2c-.552 0-1-.448-1-1v-9.416c-1.766-.771-3-2.533-3-4.584C7 4.534 8.234 2.771 10 2v4.584c0 1.105.895 2 2 2s2-.895 2-2V2z" transform="translate(-3591.000000, -331.000000) translate(3210.000000, 100.000000) translate(230.000000, 55.000000) translate(20.000000, 20.000000) translate(0.000000, 156.000000) translate(131.000000, -0.000000) translate(12.000000, 11.792079) rotate(-45.000000) translate(-12.000000, -11.792079)"/>
                            </g>
                        </g>
                    </g>
                </g>
            </g>
        </g>
    </g>
</svg>
